<?xml version="1.0" encoding="UTF-8"?>
<svg width="1280px" height="720px" viewBox="0 0 1280 720" version="1.1" xmlns="http://www.w3.org/2000/svg" xmlns:xlink="http://www.w3.org/1999/xlink" style="background: #FFFFFF;">
    <!-- Generator: Sketch 63 (92445) - https://sketch.com -->
    <title>assets/GridBackground</title>
    <desc>Created with Sketch.</desc>
    <g id="Mockups" stroke="none" stroke-width="1" fill="none" fill-rule="evenodd">
        <g id="__grid_src">
            <rect fill="#FFFFFF" x="0" y="0" width="1280" height="720"></rect>
            <g id="Group-2" opacity="0.6" transform="translate(-1.000000, -259.000000)" stroke="#B5C1CE" stroke-dasharray="3,3" stroke-linecap="square">
                <g id="Group" transform="translate(26.000000, 258.500000)">
                    <line x1="1230.5" y1="0.5" x2="1230.5" y2="719.5" id="Line-2-Copy-41"></line>
                    <line x1="1200.5" y1="0.5" x2="1200.5" y2="719.5" id="Line-2-Copy-66"></line>
                    <line x1="1170.5" y1="0.5" x2="1170.5" y2="719.5" id="Line-2-Copy-67"></line>
                    <line x1="1140.5" y1="0.5" x2="1140.5" y2="719.5" id="Line-2-Copy-68"></line>
                    <line x1="1110.5" y1="0.5" x2="1110.5" y2="719.5" id="Line-2-Copy-69"></line>
                    <line x1="1080.5" y1="0.5" x2="1080.5" y2="719.5" id="Line-2-Copy-70"></line>
                    <line x1="1050.5" y1="0.5" x2="1050.5" y2="719.5" id="Line-2-Copy-71"></line>
                    <line x1="1020.5" y1="0.5" x2="1020.5" y2="719.5" id="Line-2-Copy-72"></line>
                    <line x1="990.5" y1="0.5" x2="990.5" y2="719.5" id="Line-2-Copy-73"></line>
                    <line x1="960.5" y1="0.5" x2="960.5" y2="719.5" id="Line-2-Copy-74"></line>
                    <line x1="930.5" y1="0.5" x2="930.5" y2="719.5" id="Line-2-Copy-75"></line>
                    <line x1="900.5" y1="0.5" x2="900.5" y2="719.5" id="Line-2-Copy-76"></line>
                    <line x1="870.5" y1="0.5" x2="870.5" y2="719.5" id="Line-2-Copy-77"></line>
                    <line x1="840.5" y1="0.5" x2="840.5" y2="719.5" id="Line-2-Copy-78"></line>
                    <line x1="810.5" y1="0.5" x2="810.5" y2="719.5" id="Line-2-Copy-79"></line>
                    <line x1="780.5" y1="0.5" x2="780.5" y2="719.5" id="Line-2-Copy-80"></line>
                    <line x1="750.5" y1="0.5" x2="750.5" y2="719.5" id="Line-2-Copy-81"></line>
                    <line x1="720.5" y1="0.5" x2="720.5" y2="719.5" id="Line-2-Copy-82"></line>
                    <line x1="690.5" y1="0.5" x2="690.5" y2="719.5" id="Line-2-Copy-83"></line>
                    <line x1="660.5" y1="0.5" x2="660.5" y2="719.5" id="Line-2-Copy-84"></line>
                    <line x1="630.5" y1="0.5" x2="630.5" y2="719.5" id="Line-2-Copy-85"></line>
                    <line x1="600.5" y1="0.5" x2="600.5" y2="719.5" id="Line-2-Copy-86"></line>
                    <line x1="570.5" y1="0.5" x2="570.5" y2="719.5" id="Line-2-Copy-87"></line>
                    <line x1="540.5" y1="0.5" x2="540.5" y2="719.5" id="Line-2-Copy-88"></line>
                    <line x1="510.5" y1="0.5" x2="510.5" y2="719.5" id="Line-2-Copy-89"></line>
                    <line x1="480.5" y1="0.5" x2="480.5" y2="719.5" id="Line-2-Copy-90"></line>
                    <line x1="450.5" y1="0.5" x2="450.5" y2="719.5" id="Line-2-Copy-91"></line>
                    <line x1="420.5" y1="0.5" x2="420.5" y2="719.5" id="Line-2-Copy-92"></line>
                    <line x1="390.5" y1="0.5" x2="390.5" y2="719.5" id="Line-2-Copy-93"></line>
                    <line x1="360.5" y1="0.5" x2="360.5" y2="719.5" id="Line-2-Copy-94"></line>
                    <line x1="330.5" y1="0.5" x2="330.5" y2="719.5" id="Line-2-Copy-95"></line>
                    <line x1="300.5" y1="0.5" x2="300.5" y2="719.5" id="Line-2-Copy-96"></line>
                    <line x1="270.5" y1="0.5" x2="270.5" y2="719.5" id="Line-2-Copy-97"></line>
                    <line x1="240.5" y1="0.5" x2="240.5" y2="719.5" id="Line-2-Copy-98"></line>
                    <line x1="210.5" y1="0.5" x2="210.5" y2="719.5" id="Line-2-Copy-99"></line>
                    <line x1="180.5" y1="0.5" x2="180.5" y2="719.5" id="Line-2-Copy-100"></line>
                    <line x1="150.5" y1="0.5" x2="150.5" y2="719.5" id="Line-2-Copy-101"></line>
                    <line x1="120.5" y1="0.5" x2="120.5" y2="719.5" id="Line-2-Copy-102"></line>
                    <line x1="90.5" y1="0.5" x2="90.5" y2="719.5" id="Line-2-Copy-103"></line>
                    <line x1="60.5" y1="0.5" x2="60.5" y2="719.5" id="Line-2-Copy-104"></line>
                    <line x1="30.5" y1="0.5" x2="30.5" y2="719.5" id="Line-2-Copy-105"></line>
                    <line x1="0.5" y1="0.5" x2="0.5" y2="719.5" id="Line-2-Copy-106"></line>
                </g>
                <g id="Group-Copy" transform="translate(642.000000, 482.000000) rotate(90.000000) translate(-642.000000, -482.000000) translate(160.500000, -159.500000)">
                    <line x1="272" y1="1.39027778" x2="272" y2="1281.60972" id="Line-2-Copy-9"></line>
                    <line x1="272" y1="1.5" x2="272" y2="1282.5" id="Line-2-Copy-10"></line>
                    <line x1="272" y1="1.5" x2="272" y2="1282.5" id="Line-2-Copy-42"></line>
                    <line x1="302" y1="1.5" x2="302" y2="1282.5" id="Line-2-Copy-43"></line>
                    <line x1="332" y1="1.5" x2="332" y2="1282.5" id="Line-2-Copy-44"></line>
                    <line x1="362" y1="1.5" x2="362" y2="1282.5" id="Line-2-Copy-45"></line>
                    <line x1="392" y1="1.5" x2="392" y2="1282.5" id="Line-2-Copy-46"></line>
                    <line x1="422" y1="1.5" x2="422" y2="1282.5" id="Line-2-Copy-47"></line>
                    <line x1="452" y1="1.5" x2="452" y2="1282.5" id="Line-2-Copy-48"></line>
                    <line x1="482" y1="1.5" x2="482" y2="1282.5" id="Line-2-Copy-49"></line>
                    <line x1="512" y1="1.5" x2="512" y2="1282.5" id="Line-2-Copy-50"></line>
                    <line x1="542" y1="1.5" x2="542" y2="1282.5" id="Line-2-Copy-51"></line>
                    <line x1="572" y1="1.5" x2="572" y2="1282.5" id="Line-2-Copy-52"></line>
                    <line x1="602" y1="1.5" x2="602" y2="1282.5" id="Line-2-Copy-53"></line>
                    <line x1="632" y1="1.5" x2="632" y2="1282.5" id="Line-2-Copy-54"></line>
                    <line x1="662" y1="1.5" x2="662" y2="1282.5" id="Line-2-Copy-55"></line>
                    <line x1="692" y1="1.5" x2="692" y2="1282.5" id="Line-2-Copy-56"></line>
                    <line x1="722" y1="1.5" x2="722" y2="1282.5" id="Line-2-Copy-57"></line>
                    <line x1="752" y1="1.5" x2="752" y2="1282.5" id="Line-2-Copy-58"></line>
                    <line x1="782" y1="1.5" x2="782" y2="1282.5" id="Line-2-Copy-59"></line>
                    <line x1="812" y1="1.5" x2="812" y2="1282.5" id="Line-2-Copy-60"></line>
                    <line x1="842" y1="1.5" x2="842" y2="1282.5" id="Line-2-Copy-61"></line>
                    <line x1="872" y1="1.5" x2="872" y2="1282.5" id="Line-2-Copy-62"></line>
                    <line x1="902" y1="1.5" x2="902" y2="1282.5" id="Line-2-Copy-63"></line>
                    <line x1="932" y1="1.5" x2="932" y2="1282.5" id="Line-2-Copy-64"></line>
                    <line x1="962" y1="1.5" x2="962" y2="1282.5" id="Line-2-Copy-65"></line>
                </g>
            </g>
        </g>
    </g>
</svg>