<?xml version="1.0" encoding="UTF-8"?>
<svg width="639px" height="262px" viewBox="0 0 639 262" version="1.1" xmlns="http://www.w3.org/2000/svg" xmlns:xlink="http://www.w3.org/1999/xlink">
    <!-- Generator: Sketch 63 (92445) - https://sketch.com -->
    <title>assets/TitleLogo_jp</title>
    <desc>Created with Sketch.</desc>
    <defs>
        <path d="M576.991025,59 C578.131972,59.0000022 579.084483,59.8703811 579.187089,61.0067042 C579.401295,63.3789716 579.727011,65.7333677 580.164236,68.0698925 C580.539913,70.0775025 580.991817,72.0393325 581.519948,73.9553828 C581.843553,75.1293914 581.154158,76.3434434 579.980147,76.6670419 C579.789283,76.7196509 579.592202,76.7463148 579.39422,76.7463148 L536.969244,76.7463148 L536.969244,85.6194722 L569.079217,85.6194722 C570.297005,85.6194722 571.284217,86.6066844 571.284217,87.8244722 L571.284217,97.833353 C571.284217,99.0511409 570.297005,100.038353 569.079217,100.038353 L536.969244,100.038353 L536.969244,111.1298 L568.135071,111.1298 C569.287393,111.1298 570.245398,112.017078 570.333602,113.166019 L571.101982,123.1749 C571.195197,124.389115 570.286447,125.448996 569.072232,125.542211 C569.016075,125.546523 568.959773,125.548681 568.903451,125.548681 L536.969244,125.548681 L536.969244,134.421838 L587.013317,134.421838 C588.139747,134.421838 589.085074,135.270855 589.205648,136.390813 C589.532442,139.426262 589.831261,142.097371 590.102105,144.40414 C590.329276,146.338952 590.753166,148.352688 591.373774,150.445348 C591.720036,151.612879 591.054253,152.840043 589.886718,153.186292 C589.683208,153.246646 589.472049,153.277297 589.259779,153.277297 L536.969244,153.277297 L536.969244,181.005914 C538.879835,181.005914 541.889666,180.455197 545.998736,179.353763 C547.14152,179.047426 548.322389,179.697596 548.674647,180.82707 L552.876499,194.299842 C553.239071,195.462402 552.590557,196.698767 551.427999,197.061343 C551.384341,197.074959 551.34027,197.087213 551.29585,197.098088 C543.507614,199.004841 537.256166,200.295651 532.541506,200.970519 C527.838512,201.643716 521.912164,202.316914 514.762462,202.990112 C513.5697,203.102432 512.505494,202.241817 512.365789,201.051952 L510.653518,186.46859 C510.514044,185.280691 511.34704,184.19819 512.531031,184.02871 L518.151356,183.224204 L518.151356,153.277297 L512.607814,153.277297 C511.390026,153.277297 510.402814,152.290085 510.402814,151.072297 L510.402814,135.517693 C510.402814,134.299905 511.390026,133.312693 512.607814,133.312693 L517.044421,133.312693 L514.898198,61.2706606 C514.861935,60.0534128 515.819312,59.0372412 517.03656,59.0009778 L576.991025,59 Z M555.345316,157.31127 C559.23708,161.22705 563.128843,165.14283 567.020606,169.05861 L576.429283,157.698522 C577.20606,156.760638 578.596066,156.630034 579.53395,157.406811 C579.588733,157.452183 579.641288,157.50018 579.691432,157.550633 L587.539073,165.446703 C588.33401,166.246546 588.397348,167.517283 587.685889,168.392211 L579.074716,178.981928 L584.727794,183.451042 L592.205026,189.362266 C593.16034,190.117502 593.322536,191.504177 592.567299,192.459492 C592.456322,192.59987 592.328669,192.726216 592.187156,192.835743 L581.475561,201.126281 C580.696877,201.728972 579.612971,201.742316 578.819682,201.158983 C572.140114,196.247256 565.719961,190.347639 559.559222,183.460129 C553.657619,176.862326 548.876932,171.134619 545.217162,166.277009 C544.52751,165.361671 544.654061,164.070617 545.508309,163.3066 L552.311405,157.222084 C553.185519,156.440299 554.518636,156.479488 555.345316,157.31127 Z M475.481019,59 C476.698807,59 477.686019,59.9872121 477.686019,61.205 L477.686019,93.1560395 L502.877192,93.1560395 C504.09498,93.1560395 505.082192,94.1432516 505.082192,95.3610395 C505.082192,95.3839352 505.081835,95.4068295 505.081122,95.4297141 L503.017446,161.65789 C502.981912,162.798264 502.082317,163.723198 500.94337,163.790388 L486.659839,164.63302 C485.444165,164.704737 484.400529,163.777376 484.328812,162.561701 C484.325398,162.503829 484.324267,162.445844 484.325423,162.387883 L485.376485,109.683155 L477.686019,109.683155 L477.686019,146.04281 C477.686019,159.861417 478.026869,177.098359 478.70857,197.753637 C478.748758,198.970772 477.794639,199.990019 476.577504,200.030189 L476.541142,200.031089 L476.541142,200.031089 L462.197037,200.031389 C461.023661,200.031408 460.055808,199.112491 459.994982,197.940693 C459.496979,188.346714 459.168376,176.923728 459.009172,163.671734 C458.83824,149.443413 458.83824,131.079951 459.009172,108.581348 L451.318706,107.47954 L452.382118,157.604106 C452.403046,158.591157 451.765321,159.471825 450.821014,159.759904 C448.609519,160.434563 446.578141,161.003967 444.726878,161.468118 C442.928434,161.919027 440.507594,162.469268 437.464358,163.118843 C436.273394,163.373067 435.101846,162.613676 434.847635,161.422708 C434.817629,161.282132 434.801441,161.138959 434.799302,160.995232 L433.767386,91.6573676 C433.751823,90.6116307 434.473017,89.6988195 435.493983,89.4720242 C438.269463,88.8554849 440.614669,88.2471438 442.529602,87.6470008 C444.147494,87.1399508 446.072526,86.4462364 448.304699,85.5658576 C449.437559,85.1190584 450.718127,85.6752147 451.164931,86.8080723 C451.266538,87.0656931 451.318706,87.3401486 451.318706,87.6170826 L451.318706,90.952424 L459.009172,92.0542317 L459.009172,61.205 C459.009172,59.9872121 459.996384,59 461.214172,59 L475.481019,59 Z M78.3686575,110.058345 C101.472369,110.058345 114.029744,124.298504 114.029744,141.903508 C114.029744,153.315931 105.014437,166.809066 86.9838238,182.382913 C86.109391,183.138205 84.8002054,183.090372 83.9832191,182.273284 L74.8733186,173.162258 C74.0192852,172.30815 74.0113658,170.925917 74.8555406,170.062064 C84.8705741,159.813573 90.2274046,151.894471 90.9260323,146.304759 C92.0262091,137.502257 87.625502,130.900381 75.5235577,129.800068 C68.1477879,129.129461 60.1590213,130.911143 51.557258,135.145116 C50.4646565,135.682929 49.142948,135.233173 48.605144,134.140567 C48.5361173,134.000332 48.482197,133.853155 48.4442924,133.701518 L45.0659385,120.186432 C44.8490532,119.318864 45.177656,118.406223 45.8977983,117.876027 C52.9767447,112.664239 63.8003644,110.058345 78.3686575,110.058345 Z M144.600816,86.9444354 C166.030736,83.9825666 180.366932,82.7377998 187.609405,83.210135 C198.649405,83.930135 205.351953,90.2099827 205.351953,96.8099827 C205.351953,100.169983 203.671953,103.769983 199.831953,107.369983 C194.671953,112.169983 190.591953,115.649983 183.271953,119.129983 C197.610137,117.269401 211.574225,116.233851 225.164217,116.023334 C225.695612,116.015102 226.140619,116.423965 226.177318,116.954154 L226.177318,116.954154 L227.125256,130.646584 C227.162356,131.182479 226.769432,131.651942 226.235383,131.709829 C216.548998,132.759279 207.647226,134.896014 199.530069,138.120034 C186.954595,143.114835 180.707231,148.850308 180.631953,155.249983 C180.556674,161.649657 191.551953,164.249983 210.391953,164.249983 L213.359074,164.249983 C213.428416,164.249983 213.49757,164.257195 213.56542,164.271504 C214.105819,164.385465 214.451515,164.91593 214.337553,165.456329 L214.337553,165.456329 L211.039322,181.096329 C210.94177,181.558913 210.533601,181.889983 210.060843,181.889983 L210.060843,181.889983 L208.831953,181.889983 C178.471953,181.889983 160.849405,170.210135 160.369405,158.330135 C159.889405,146.450135 167.431953,140.729983 176.551953,134.129983 C166.966585,135.229943 153.330171,137.91174 135.642711,142.175375 C135.106293,142.30468 134.566511,141.975066 134.436518,141.438814 L134.436518,141.438814 L131.055843,127.493532 C130.930449,126.976282 131.232162,126.451446 131.742254,126.299536 C145.740733,122.130014 155.494016,118.727898 161.002102,116.093188 C169.442161,112.056013 176.17206,106.872814 181.351953,102.449983 C182.071953,101.849983 182.431953,101.249983 182.431953,100.649983 C182.431953,100.049983 181.951953,99.6899827 180.871953,99.5699827 C180.151953,99.5699827 179.311953,99.4499827 178.351953,99.4499827 C173.802781,99.4499827 163.601559,100.75726 147.748287,103.371813 C147.215331,103.45971 146.708899,103.108477 146.604438,102.578519 L146.604438,102.578519 L143.7566,88.1283795 C143.75291,88.1096567 143.749757,88.0908322 143.747144,88.071929 C143.671531,87.5248457 144.053733,87.0200503 144.600816,86.9444354 Z M306.534703,91.3439839 L325.580232,98.6110689 C326.717992,99.0452169 327.288402,100.319491 326.854271,101.457258 C326.848926,101.471265 326.843439,101.485218 326.83781,101.499113 C323.181814,110.523641 319.417213,118.29462 315.544008,124.812049 C311.375034,131.827168 306.229207,138.45385 300.106528,144.692096 L313.892967,159.486989 C314.723173,160.377924 314.673943,161.773184 313.783008,162.603391 C313.732637,162.650329 313.680094,162.694882 313.625553,162.736904 L302.745305,171.119759 C301.866916,171.796528 300.622576,171.715701 299.839118,170.930986 L286.874402,157.94546 C276.31469,167.1119 264.069572,174.252606 250.139048,179.367579 C249.0847,179.754728 247.907835,179.287472 247.406178,178.282546 L240.482232,164.412428 C239.938321,163.322857 240.380664,161.998657 241.470235,161.454744 C241.491036,161.444361 241.511999,161.434307 241.533118,161.424586 C253.732963,155.809139 262.965779,149.863494 269.231567,143.587649 L247.693664,119.960655 C246.873266,119.060681 246.937774,117.666043 247.837748,116.845644 C247.884228,116.803275 247.932499,116.762913 247.982429,116.72467 L263.162756,105.097552 C264.092686,104.385288 265.417228,104.524437 266.178836,105.414406 L284.669047,127.020943 C287.60952,123.339453 290.917551,118.185367 294.593142,111.558685 C297.936138,105.531634 300.975084,99.2000446 303.709981,92.5639178 C304.165371,91.4589737 305.418117,90.9179351 306.534703,91.3439839 Z M411.781284,95.3508118 C411.791567,95.4037163 411.799908,95.45698 411.806289,95.5104957 L413.203298,107.227394 C413.3452,108.417366 412.510693,109.502801 411.324225,109.67151 C396.411836,111.791967 385.123823,113.053453 377.460187,113.455968 L378.205753,127.713428 C388.513421,127.17204 399.758066,125.930973 411.939688,123.990225 C413.142302,123.798644 414.272532,124.618233 414.464129,125.820845 L414.476083,125.906711 L414.476083,125.906711 L415.906793,137.906258 C416.047473,139.085972 415.228178,140.165033 414.054041,140.34647 C401.112152,142.34635 389.449479,143.618975 379.066021,144.164343 C379.410129,150.744708 380.673517,155.478623 384.188893,158.191894 C389.067402,161.957271 395.631375,162.87665 403.880813,160.950032 C405.066683,160.673096 406.252533,161.409915 406.529487,162.595782 C406.546303,162.667786 406.559487,162.740591 406.568988,162.81392 L407.813886,172.421834 C407.967365,173.60639 407.149741,174.697778 405.969791,174.88338 C388.984995,177.555032 377.173785,175.89603 370.536161,169.906372 C363.626096,163.670869 359.903424,155.435054 359.368146,145.19893 L342.966561,146.060386 C341.750476,146.124764 340.712843,145.190691 340.648969,143.974579 L340.649447,143.974048 L340.019477,131.927116 C339.956397,130.711161 340.890405,129.673839 342.106293,129.609471 L358.507877,128.748015 L357.762311,114.490555 L341.360727,115.352012 C340.144642,115.41639 339.107009,114.482316 339.043135,113.266205 L339.043613,113.265674 L338.470773,102.31124 C338.407327,101.098189 339.336907,100.062296 340.549724,99.9945153 C352.507542,99.3262256 366.712926,98.2147841 383.165878,96.6601909 C396.55779,95.3948266 405.23452,94.3771168 409.196066,93.6070615 C410.391477,93.3747034 411.548917,94.1554032 411.781284,95.3508118 Z M74.2073515,77.6760059 L85.2617333,83.1664659 L85.2617333,83.1664659 C88.8617501,84.9545124 92.6781177,86.2611876 96.7108361,87.0864917 C97.6775134,87.2843273 98.3950832,88.1002948 98.4677506,89.0843291 L99.3008132,100.365356 C99.3904994,101.579837 98.4786716,102.637073 97.2641901,102.726758 C97.1534866,102.734933 97.0423238,102.734737 96.9316499,102.726171 C88.6244437,102.08322 82.4772889,101.287799 78.4901855,100.339908 C74.642787,99.4252294 69.9810985,97.8876313 64.5051201,95.7271133 C63.3723168,95.2801684 62.8163154,93.9995309 63.2632573,92.8667264 C63.3004543,92.7724483 63.3441071,92.6808469 63.3939052,92.5925738 L71.3060197,78.5674215 C71.8822176,77.5460431 73.1570675,77.1543537 74.2073515,77.6760059 Z" id="path-1"></path>
        <filter x="-0.5%" y="-1.7%" width="100.9%" height="106.9%" filterUnits="objectBoundingBox" id="filter-2">
            <feOffset dx="0" dy="5" in="SourceAlpha" result="shadowOffsetOuter1"></feOffset>
            <feColorMatrix values="0 0 0 0 1   0 0 0 0 0.82745098   0 0 0 0 0.650980392  0 0 0 1 0" type="matrix" in="shadowOffsetOuter1"></feColorMatrix>
        </filter>
    </defs>
    <g id="Mockups" stroke="none" stroke-width="1" fill="none" fill-rule="evenodd">
        <g id="TitleLogo/Jp">
            <g id="main" transform="translate(319.021320, 130.999982) rotate(-1.000000) translate(-319.021320, -130.999982) ">
                <use fill="black" fill-opacity="1" filter="url(#filter-2)" xlink:href="#path-1"></use>
                <use fill="#FF751E" fill-rule="evenodd" xlink:href="#path-1"></use>
            </g>
        </g>
    </g>
</svg>