<?xml version="1.0" encoding="UTF-8"?>
<svg width="639px" height="262px" viewBox="0 0 639 262" version="1.1" xmlns="http://www.w3.org/2000/svg" xmlns:xlink="http://www.w3.org/1999/xlink">
    <!-- Generator: Sketch 63 (92445) - https://sketch.com -->
    <title>assets/TitleLogo_en</title>
    <desc>Created with Sketch.</desc>
    <defs>
        <path d="M140.996202,98.8980927 C168.356202,98.8980927 178.236202,108.766706 178.236202,119.394443 C178.236202,126.256633 176.335085,132.169361 172.532852,137.132625 C172.305907,137.428836 171.932922,137.574064 171.565432,137.509288 L147.721555,133.306394 C147.177644,133.210537 146.814439,132.691891 146.910313,132.147983 C146.929939,132.036635 146.968307,131.929423 147.023783,131.830905 C151.421394,124.021375 151.6922,119.875887 147.836202,119.394443 C141.756202,118.635319 119.716202,121.671815 115.916202,128.503932 C112.116202,135.336049 112.876202,139.131669 142.516202,144.445538 C172.156202,149.759407 182.036202,158.109772 182.036202,171.774005 C182.036202,185.438239 169.876202,196.8251 142.516202,199.102472 C124.803396,200.576838 110.913001,201.812579 100.845018,202.809694 C100.338709,202.859798 99.8754695,202.521777 99.7687473,202.024314 L95.6381238,182.770287 C95.5222869,182.230293 95.8661256,181.69863 96.4061184,181.582784 C96.4523524,181.572865 96.4992318,181.566238 96.5464035,181.562953 C110.698914,180.577343 121.968847,179.591732 130.356202,178.606122 C143.276202,177.087874 152.396202,176.32875 152.396202,172.533129 C152.396202,168.737509 139.476202,164.182764 126.556202,161.905392 C104.00452,157.93027 87.0362016,151.277655 87.0362016,133.058677 C87.0362016,114.839699 113.636202,98.8980927 140.996202,98.8980927 Z M189.169581,115.953492 L212.327354,117.343655 C212.878647,117.37675 213.298729,117.850488 213.265635,118.401781 C213.263634,118.435126 213.259962,118.468349 213.254635,118.501326 L210.378307,136.307541 L226.078098,134.893851 C226.628157,134.844321 227.114221,135.25008 227.163751,135.800139 C227.166436,135.829958 227.167781,135.859882 227.167781,135.889822 L227.167781,151.257662 C227.167781,151.779314 226.766794,152.213331 226.246773,152.254538 L208.088833,153.693368 C206.053745,168.307541 206.816903,176.622502 210.378307,178.63825 C213.800615,180.57527 219.102148,180.418252 226.282907,178.167197 C226.783109,178.010354 227.319514,178.266423 227.512124,178.75397 L233.648334,194.286375 C233.851271,194.800031 233.599371,195.380938 233.085711,195.583864 C233.067672,195.590991 233.04943,195.597591 233.031008,195.603656 C212.726464,202.288635 199.0703,201.168933 192.062517,192.244549 C184.93971,183.173683 182.650237,170.827227 185.194096,155.205179 L178.568817,155.861411 C178.019222,155.915848 177.529557,155.514443 177.475119,154.964848 C177.474753,154.961146 177.474407,154.957441 177.474081,154.953735 L176.124113,139.576632 C176.075813,139.026463 176.482658,138.541309 177.032827,138.493009 C177.034558,138.492857 177.036289,138.492709 177.03802,138.492567 L185.194096,137.819353 L188.119216,116.813771 C188.191199,116.296851 188.648611,115.922218 189.169581,115.953492 Z M378.503167,104.960927 C379.054759,104.933281 379.524325,105.358023 379.551971,105.909615 L379.551971,105.909615 L383.987095,194.397666 C384.014367,194.94179 383.601059,195.40762 383.057559,195.445327 L383.057559,195.445327 L363.101717,196.829802 C362.555964,196.867665 362.081084,196.459954 362.03592,195.914757 L362.03592,195.914757 L361.361557,187.774126 C353.299462,193.85677 345.489306,196.898093 337.931092,196.898093 C326.59377,196.898093 312.988983,195.377432 305.430768,180.17082 C297.872554,164.964208 303.163304,145.955944 319.035555,137.592308 C329.617056,132.01655 342.466021,132.01655 357.58245,137.592308 L357.58245,137.592308 L355.388247,107.42596 L355.388247,107.42596 L355.387582,107.416164 C355.352927,106.864968 355.771666,106.390041 356.322863,106.355386 L356.322863,106.355386 L378.490476,104.961644 L378.490476,104.961644 Z M472.548423,141.045283 C484.659331,153.904181 478.783387,175.456448 461.646357,183.158539 C444.509327,190.86063 424.861726,184.916818 418.049341,178.109166 C411.236956,171.301514 409.92677,155.075744 423.347863,142.558095 C434.701838,131.968414 460.437516,128.186385 472.548423,141.045283 Z M234.271767,124.898093 L250.749912,126.322662 C251.300166,126.370199 251.707669,126.854829 251.660098,127.40508 C251.659082,127.416837 251.657858,127.428576 251.656426,127.44029 C249.264177,147.009984 249.814275,158.778938 253.306721,162.747149 C258.636508,168.802998 270.818878,169.559979 273.864471,158.205262 C275.838424,150.84588 275.413527,140.624577 272.589779,127.541353 C272.473249,127.001495 272.816436,126.469395 273.356297,126.352877 C273.403273,126.342738 273.45092,126.335999 273.498865,126.332712 L293.490631,124.961967 C294.015133,124.926005 294.477916,125.302317 294.549677,125.823129 L301.890764,179.102177 C301.966148,179.649293 301.583735,180.153929 301.036619,180.229314 C301.015678,180.232199 300.99465,180.23442 300.973568,180.235972 L282.409018,181.603147 C281.884988,181.641738 281.420474,181.268185 281.345739,180.748077 L280.717054,176.37281 C272.087875,182.933313 262.951097,185.204256 253.306721,183.18564 C238.840156,180.157715 233.510369,170.316961 231.987573,163.50413 C230.464777,156.6913 230.464777,138.523753 234.271767,124.898093 Z M407.776178,129.897636 C408.31165,129.897636 408.752095,130.319435 408.775243,130.854407 L410.938705,180.854407 C410.962579,181.406175 410.534637,181.872826 409.982868,181.896701 L409.961259,181.897402 L409.961259,181.897402 L390.191511,181.897636 C389.656039,181.897636 389.215593,181.475836 389.192446,180.940865 L387.028984,130.940865 C387.005109,130.389096 387.433052,129.922445 387.98482,129.898571 C387.999222,129.897947 388.013635,129.897636 388.028049,129.897636 L407.776178,129.897636 Z M358.398669,144.736258 L353.546065,153.063753 C353.293512,153.497156 352.758947,153.676391 352.296179,153.482827 C349.245195,152.206693 344.706951,151.568625 338.681446,151.568625 C328.822834,151.568625 324.272705,159.160144 324.272705,163.715055 C324.272705,168.269966 326.54777,178.898093 340.95651,178.898093 C350.562337,178.898093 356.629175,174.596232 359.157024,165.992511 L359.157024,165.992511 L358.398669,144.736258 Z M433.47579,153.846081 C427.408952,163.715055 434.9925,172.065726 441.817693,172.065726 C448.642885,172.065726 464.568335,166.751663 461.534916,155.364385 C458.501497,143.977107 438.496468,145.678904 433.47579,153.846081 Z M46.5117091,43.6010027 C46.521715,43.6509506 46.5278899,43.7015901 46.5301799,43.7524789 C46.6568646,46.5677406 47.1536695,52.534163 48.0205944,61.651746 L95.7508865,56.4227168 C96.2998865,56.3625718 96.7936961,56.7588671 96.8538411,57.3078672 C96.85419,57.3110519 96.8545236,57.3142383 96.8548419,57.3174262 L98.9391618,78.1946764 C98.9940275,78.7442292 98.5930044,79.2342071 98.0434516,79.2890727 L98.0390712,79.2895003 L52.0607444,83.6755422 C51.5112042,83.7279469 51.1080903,84.2157476 51.1601451,84.7653211 C52.662122,100.62259 54.407654,114.528234 56.3967412,126.482254 C51.3449416,127.494265 46.268489,128.511214 41.1673834,129.533102 C36.4242645,130.483275 31.7024596,131.429179 27.001969,132.370813 C26.4604531,132.479264 25.9335326,132.128223 25.8250536,131.586713 C25.8197133,131.560055 25.8154624,131.53319 25.8123115,131.506186 C24.6631311,121.65732 23.1821,109.050473 21.3692183,93.6856443 C19.5303104,78.1002346 17.7899241,63.4059824 16.1480593,49.6028878 C16.0864109,49.0849643 16.433208,48.6066625 16.9446268,48.5042116 L45.3347282,42.8169154 C45.8762672,42.7083915 46.4032229,43.0594562 46.5117091,43.6010027 Z M398.875736,99.8976358 C407.956817,99.8976358 410.983844,107.564302 410.983844,112.930969 C410.983844,118.297636 406.443304,122.897636 398.875736,122.897636 C391.308169,122.897636 382.983844,118.297636 382.983844,112.930969 C382.983844,107.564302 388.281142,99.8976358 398.875736,99.8976358 Z M277.723658,39.2879751 C291.643658,39.2879751 302.083658,46.8479751 302.083658,55.3679751 C302.083658,59.0879751 301.563658,61.4079751 294.123658,67.2879751 C289.249126,71.1404273 279.635571,75.2118019 265.282991,79.5020987 C264.875451,79.6239212 264.44017,79.474081 264.192354,79.1383762 L264.129578,79.0422766 L258.523658,69.2879751 C258.403658,70.1279751 258.283658,71.0879751 258.283658,71.9279751 C258.283658,80.8079751 261.643658,84.0479751 272.683658,84.0479751 C279.849009,84.0479751 286.521502,79.9534537 292.701136,71.7644108 C292.970236,71.4078076 293.439054,71.2766273 293.848738,71.4297246 L293.958809,71.4785709 L306.140501,77.7794461 C306.173019,77.7962656 306.204589,77.8148583 306.235068,77.8351399 C306.694862,78.141102 306.819568,78.7618702 306.513599,79.2216599 C297.718217,92.4392034 286.40157,99.0479751 272.563658,99.0479751 C251.323658,99.0479751 241.123658,89.3279751 241.123658,71.9279751 C241.123658,58.0079751 252.763658,43.2479751 270.283658,40.0079751 C272.803658,39.5279751 275.323658,39.2879751 277.723658,39.2879751 Z M351.954323,32.1219911 C369.365538,33.6334415 382.263191,44.9169621 382.263191,63.8100919 C382.263191,75.9342212 381.806359,85.8068684 380.892696,93.4280336 C380.832578,93.9296439 380.407766,94.3076192 379.902568,94.3090148 L362.858405,94.3560971 C362.306123,94.3576227 361.857173,93.9111459 361.855647,93.3588632 L361.855953,93.3311956 L361.855953,93.3311956 L362.552454,65.3738995 C360.545397,56.6462657 356.009158,52.2824488 348.943738,52.2824488 C338.345607,52.2824488 332.27208,62.3509987 333.029089,72.9311514 C333.507817,79.62197 334.45113,86.3930168 335.85903,93.244292 C335.97018,93.785267 335.621754,94.3139297 335.080783,94.4250964 C335.038607,94.4337632 334.995916,94.4396971 334.952976,94.4428608 L315.809617,95.8533142 C315.280762,95.8922795 314.813448,95.5116464 314.744602,94.9858453 L307.340846,38.4409897 C307.269144,37.8933792 307.654944,37.3913273 308.202555,37.3196254 C308.205338,37.3192609 308.208123,37.3189081 308.21091,37.3185671 L325.173819,35.2426681 C325.720933,35.1757131 326.219062,35.5640962 326.287544,36.1110207 L326.920657,41.1673357 C332.002291,34.1294724 340.346846,31.1143575 351.954323,32.1219911 Z M196.549691,5.23192165 C197.101896,5.22253573 197.557155,5.66257753 197.566541,6.21478252 L197.566541,6.21478252 L198.269182,47.5534996 L218.978257,30.785331 C219.388985,30.4527635 219.987581,30.4972069 220.344693,30.8867837 L220.344693,30.8867837 L229.994435,41.4137755 C230.007075,41.4275645 230.019326,41.4417055 230.031172,41.4561818 C230.380944,41.8835902 230.318008,42.5136194 229.890599,42.8633915 L229.890599,42.8633915 L209.789182,59.3134996 C208.589182,60.0334996 207.989182,60.7534996 207.989182,61.4734996 C207.989182,62.4334996 208.709182,63.2734996 210.149182,64.1134996 C215.704207,67.4101733 224.796792,71.6796759 237.426936,76.9220075 C237.463915,76.9373561 237.499939,76.9549118 237.534813,76.9745796 C238.015862,77.245876 238.1859,77.8557722 237.914616,78.3368281 L237.914616,78.3368281 L230.299376,91.8397765 C230.036192,92.3064402 229.451984,92.4827765 228.974562,92.2396545 C223.823227,89.6164239 218.372681,86.6939814 212.622923,83.472327 C206.55417,80.0719361 202.009589,77.3789936 198.989182,75.3934996 L198.989182,75.3934996 L199.550687,89.8803282 C199.571985,90.4298191 199.145615,90.8934033 198.596264,90.9180536 L198.596264,90.9180536 L181.888025,91.6677823 L181.888025,91.6677823 L181.868365,91.6684708 C181.316256,91.68237 180.857415,91.2460642 180.843515,90.6939544 L180.843515,90.6939544 L178.734023,6.90024264 C178.720252,6.3532123 179.148713,5.89670223 179.695518,5.87580524 L179.695518,5.87580524 L196.528497,5.23250668 L196.528497,5.23250668 Z M444.385445,40.4863996 C450.470184,46.617011 459.597292,68.0741509 442.103668,80.3353737 C424.610045,92.5965965 400.400273,88.6830637 391.904575,77.270068 C382.777467,65.0088452 386.863316,45.5817979 406.355829,36.6547675 C423.08886,28.9915032 438.300707,34.3557882 444.385445,40.4863996 Z M476.928016,6.89691 C476.938065,6.977643 476.938226,7.05930072 476.928493,7.14007252 L474.806358,24.7512016 L493.216487,22.6357637 C493.765162,22.5727176 494.261059,22.9663972 494.324105,23.5150716 C494.334458,23.6051675 494.332506,23.6962529 494.318305,23.7858227 L492.361351,36.1284777 C492.294349,36.5510605 491.965925,36.884198 491.544339,36.9572132 L474.806358,39.8560967 C474.300765,52.9470058 476.07034,61.2546981 480.115083,64.7791736 C484.098552,68.2502571 488.817607,67.326126 494.272248,62.0067802 L494.272231,62.0067631 C494.434359,61.8486568 494.53802,61.6402016 494.566251,61.4155107 C496.350426,47.2152061 504.264459,37.1181264 518.30835,31.1242717 C539.54325,22.0613346 556.712398,33.8141387 556.712398,42.121831 C556.712398,47.620598 544.751481,55.8490435 520.829645,66.8071676 C520.507717,66.9546587 520.131796,66.9208815 519.841305,66.7183813 L512.725821,61.7581946 C512.725821,70.3176352 516.517768,74.0938589 524.10166,73.0868659 C531.543146,72.0987817 538.984633,67.4749581 546.426119,59.2153952 C546.688128,58.9246335 547.095677,58.8134263 547.469046,58.9308434 L559.894049,62.8382597 C560.420892,63.0039462 560.713672,63.5653499 560.54799,64.0921944 C560.511827,64.2071855 560.455172,64.3146909 560.380757,64.4095232 C549.499085,78.2769145 537.658849,85.7008306 524.860049,86.6812715 C512.474517,87.6300544 504.352869,85.0030865 500.495104,78.8003677 L500.320066,78.5115582 C500.039313,78.0359682 499.426176,77.8780213 498.950586,78.1587739 C498.948141,78.1602173 498.945703,78.161671 498.94327,78.1631351 C487.203756,85.2287871 477.388543,86.3059282 469.497633,81.3945582 C461.408148,76.3595932 457.110609,63.5204324 456.605016,42.8770757 L450.878156,44.1444345 C450.338918,44.2637684 449.80504,43.9233686 449.685706,43.3841304 C449.677225,43.3458096 449.671008,43.3070227 449.667087,43.2679712 L448.355047,30.2019711 C448.302926,29.6829182 448.658559,29.2110004 449.171876,29.118057 L456.605016,27.7721806 L458.789783,8.91603873 C458.842845,8.45807766 459.202116,8.09574235 459.659609,8.03879273 L475.812146,6.02809727 C476.360201,5.95987446 476.859793,6.34885517 476.928016,6.89691 Z M142.423914,20.8819799 C153.449762,20.8819799 161.951679,24.0368931 167.929666,30.3467195 C168.197488,30.6294085 168.27434,31.0382611 168.136716,31.3945085 L168.082866,31.5110641 L160.703914,45.1219799 L164.872549,44.2494749 L164.885059,44.2469397 L164.885059,44.2469397 C165.388319,44.1482943 165.877353,44.4458234 166.029704,44.9227634 L166.058738,45.0359126 L172.744459,79.1444212 L172.750786,79.180112 C172.831128,79.6866155 172.516071,80.1645456 172.033923,80.2995116 L171.919795,80.3244264 L156.551766,82.7621139 C156.545101,82.763171 156.538426,82.7641607 156.531741,82.7650827 C156.023715,82.8351553 155.55226,82.5104884 155.427082,82.0257071 L155.404482,81.911099 L154.103914,72.4819799 C150.317248,80.7486466 143.423914,84.8819799 133.423914,84.8819799 C118.423914,84.8819799 103.423914,75.8819799 103.423914,57.8819799 C103.423914,39.8819799 125.423914,20.8819799 142.423914,20.8819799 Z M428.059649,48.1649351 C417.442683,42.850872 403.792297,51.9606945 403.792297,59.5522132 C403.792297,67.1437319 410.61749,73.2169469 422.751166,70.9394913 C434.884842,68.6620357 438.676616,53.4789982 428.059649,48.1649351 Z M144.423914,38.8819799 C133.383914,38.8819799 122.303914,49.6819799 122.303914,57.8419799 C122.303914,64.5619799 127.943914,68.5219799 134.663914,68.5219799 C142.343914,68.5219799 148.103914,59.4019799 148.103914,49.8019799 C148.103914,49.480716 148.085996,49.0519412 148.050159,48.5156554 C148.019267,48.053376 148.309112,47.6360699 148.740993,47.4971846 L148.85182,47.4683989 L158.783914,45.4819799 C153.983914,41.7619799 148.863914,38.8819799 144.423914,38.8819799 Z M278.683658,53.5679751 C277.363658,53.5679751 275.683658,53.8079751 273.883658,54.2879751 C265.723658,56.4479751 260.683658,62.2079751 259.003658,67.4879751 C266.443658,66.0479751 277.363658,62.2079751 281.563658,59.5679751 C283.243658,58.4879751 283.963658,57.4079751 283.963658,56.4479751 C283.963658,54.8879751 282.043658,53.5679751 278.683658,53.5679751 Z M537.262734,43.6100239 C537.262734,42.0917202 529.679187,42.0917202 522.853994,44.3691758 C518.886766,45.6929749 515.688206,48.9404604 513.258311,54.1116323 C513.13317,54.3779517 513.131673,54.6858695 513.25422,54.9533927 C513.484231,55.4555127 514.07774,55.6761007 514.57986,55.4460899 L514.57986,55.4460899 L515.092444,55.2110795 C529.872637,48.4297507 537.262734,44.5627321 537.262734,43.6100239 Z M102.864069,8.5463587 L104.938331,29.0875961 C104.98981,29.5978176 104.648201,30.0571144 104.159205,30.1645496 L104.043856,30.1829593 C104.043525,30.1829927 104.043194,30.1830259 104.042863,30.183059 C84.286118,32.1581967 67.703929,34.3751601 54.296296,36.8339494 C40.9153272,39.2878487 24.6156427,42.4643427 5.39724254,46.3634314 C4.85599644,46.4732068 4.32821795,46.1234628 4.21840961,45.5822234 C4.21159817,45.5486502 4.20651647,45.5147491 4.20318462,45.4806542 L2.12409675,24.2053278 C2.07530031,23.7058977 2.40419565,23.2476387 2.89297629,23.1340385 C13.4754315,20.6745128 28.8427145,17.7411497 48.9948254,14.3339494 C69.2571859,10.9081086 86.8590174,8.67985818 101.80032,7.649198 C102.338955,7.6120511 102.809824,8.00917606 102.864069,8.5463587 Z" id="path-1"></path>
        <filter x="-0.4%" y="-1.3%" width="100.9%" height="105.1%" filterUnits="objectBoundingBox" id="filter-2">
            <feOffset dx="0" dy="5" in="SourceAlpha" result="shadowOffsetOuter1"></feOffset>
            <feColorMatrix values="0 0 0 0 1   0 0 0 0 0.82745098   0 0 0 0 0.650980392  0 0 0 1 0" type="matrix" in="shadowOffsetOuter1"></feColorMatrix>
        </filter>
    </defs>
    <g id="Mockups" stroke="none" stroke-width="1" fill="none" fill-rule="evenodd">
        <g id="TitleLogo/En">
            <g id="logo" transform="translate(37.000000, 27.000000)">
                <g id="main" transform="translate(281.356812, 104.023191) rotate(-1.000000) translate(-281.356812, -104.023191) ">
                    <use fill="black" fill-opacity="1" filter="url(#filter-2)" xlink:href="#path-1"></use>
                    <use fill="#FF751E" fill-rule="evenodd" xlink:href="#path-1"></use>
                </g>
            </g>
        </g>
    </g>
</svg>