<?xml version="1.0" encoding="UTF-8"?>
<svg width="33px" height="33px" viewBox="0 0 33 33" version="1.1" xmlns="http://www.w3.org/2000/svg" xmlns:xlink="http://www.w3.org/1999/xlink">
    <!-- Generator: Sketch 63 (92445) - https://sketch.com -->
    <title>assets/icons/ButtonROutline</title>
    <desc>Created with Sketch.</desc>
    <g id="assets/icons/ButtonROutline" stroke="none" stroke-width="1" fill="none" fill-rule="evenodd">
        <g id="IconButton/R">
            <g id="button-r" transform="translate(3.000000, 5.000000)">
                <path d="M26.0357143,-1.5 L7.71428571,-1.5 C5.15691224,-1.5 2.83505385,-0.386793701 1.15686305,1.43265896 C-0.479211998,3.20645076 -1.5,5.65456295 -1.5,8.36363636 L-1.5,21.9545455 C-1.5,22.6427588 -1.23473148,23.2613255 -0.820166178,23.7107869 C-0.363485114,24.2059091 0.270873267,24.5 0.964285714,24.5 L26.0357143,24.5 C26.7291267,24.5 27.3634851,24.2059091 27.8201662,23.7107869 C28.2347315,23.2613255 28.5,22.6427588 28.5,21.9545455 L28.5,1.04545455 C28.5,0.357241237 28.2347315,-0.261325497 27.8201662,-0.710786871 C27.3634851,-1.2059091 26.7291267,-1.5 26.0357143,-1.5 Z" id="bg" stroke="#FFFFFF" stroke-width="3" fill="#000000" transform="translate(13.500000, 11.500000) scale(-1, 1) translate(-13.500000, -11.500000) "></path>
                <path d="M14.5689839,5 C16.5553507,5 18.1773723,6.56063243 18.2768089,8.52314906 L18.2816398,8.71428571 C18.2816398,10.4433456 17.1006941,11.8964597 15.5017215,12.3103744 L19,18 L16.2773857,18 L12.8499468,12.4285714 L11.3194431,12.4285714 L11.3204099,18 L9,18 L9,5 L14.5689839,5 Z M13.9487179,7 L11,7 L11,11 L13.9487179,11 C15.0276625,11 15.9120479,10.1878181 15.9938285,9.15629882 L16,9 L15.9938285,8.84370118 C15.9163521,7.86647235 15.1185324,7.08610041 14.1173721,7.006663 L13.9487179,7 Z" id="Shape" fill="#FFFFFF" fill-rule="nonzero"></path>
            </g>
        </g>
    </g>
</svg>