<?xml version="1.0" encoding="UTF-8"?>
<svg width="33px" height="33px" viewBox="0 0 33 33" version="1.1" xmlns="http://www.w3.org/2000/svg" xmlns:xlink="http://www.w3.org/1999/xlink">
    <!-- Generator: Sketch 63 (92445) - https://sketch.com -->
    <title>assets/icons/ButtonLOutline</title>
    <desc>Created with Sketch.</desc>
    <g id="assets/icons/ButtonLOutline" stroke="none" stroke-width="1" fill="none" fill-rule="evenodd">
        <g id="IconButton/L">
            <g id="button-l" transform="translate(3.000000, 5.000000)">
                <path d="M25.92,-1.5 L7.68,-1.5 C5.145013,-1.5 2.850013,-0.472493501 1.18875975,1.18875975 C-0.472493501,2.850013 -1.5,5.145013 -1.5,7.68 L-1.5,22.08 C-1.5,22.7593102 -1.22465512,23.3743102 -0.779482682,23.8194827 C-0.334310242,24.2646551 0.280689757,24.54 0.96,24.54 L25.92,24.54 C26.5993102,24.54 27.2143102,24.2646551 27.6594827,23.8194827 C28.1046551,23.3743102 28.38,22.7593102 28.38,22.08 L28.38,0.96 C28.38,0.280689757 28.1046551,-0.334310242 27.6594827,-0.779482682 C27.2143102,-1.22465512 26.5993102,-1.5 25.92,-1.5 Z" id="bg" stroke="#FFFFFF" stroke-width="3" fill="#000000"></path>
                <path d="M11.04,4.8 L11.04,16.32 L18.36,16.32 L18.36,18.24 L8.64,18.24 L8.64,4.8 L11.04,4.8 Z" id="Combined-Shape" fill="#FFFFFF" fill-rule="nonzero"></path>
            </g>
        </g>
    </g>
</svg>