<?xml version="1.0" encoding="UTF-8"?>
<svg width="33px" height="33px" viewBox="0 0 33 33" version="1.1" xmlns="http://www.w3.org/2000/svg" xmlns:xlink="http://www.w3.org/1999/xlink">
    <!-- Generator: Sketch 63 (92445) - https://sketch.com -->
    <title>assets/icons/ButtonLText</title>
    <desc>Created with Sketch.</desc>
    <g id="assets/icons/ButtonLText" stroke="none" stroke-width="1" fill="none" fill-rule="evenodd">
        <g id="IconButton/L">
            <g id="button-l" transform="translate(3.000000, 5.000000)">
                <path d="M7.68,-1.77635684e-14 L25.92,-1.77635684e-14 C26.4501934,-1.77635684e-14 26.88,0.42980664 26.88,0.96 L26.88,22.08 C26.88,22.6101934 26.4501934,23.04 25.92,23.04 L0.96,23.04 C0.42980664,23.04 -1.77635684e-15,22.6101934 -1.77635684e-15,22.08 L-1.77635684e-15,7.68 C-1.77635684e-15,3.43845312 3.43845312,-1.77635684e-14 7.68,-1.77635684e-14 Z" id="bg" fill="#FF751E" fill-rule="nonzero"></path>
                <path d="M11.04,4.8 L11.04,16.32 L18.36,16.32 L18.36,18.24 L8.64,18.24 L8.64,4.8 L11.04,4.8 Z" id="Combined-Shape" fill="#FFFFFF" fill-rule="nonzero"></path>
            </g>
        </g>
    </g>
</svg>