<?xml version="1.0" encoding="UTF-8"?>
<svg width="33px" height="33px" viewBox="0 0 33 33" version="1.1" xmlns="http://www.w3.org/2000/svg" xmlns:xlink="http://www.w3.org/1999/xlink">
    <!-- Generator: Sketch 63 (92445) - https://sketch.com -->
    <title>assets/icons/ButtonZROutline</title>
    <desc>Created with Sketch.</desc>
    <g id="assets/icons/ButtonZROutline" stroke="none" stroke-width="1" fill="none" fill-rule="evenodd">
        <g id="IconButton/ZR" transform="translate(1.000000, 1.000000)">
            <g id="button-zr" transform="translate(3.000000, 3.000000)">
                <path d="M19.2,-1.5 L9.6,-1.5 C6.53481964,-1.5 3.75981964,-0.257590181 1.75111473,1.75111473 C-0.257590181,3.75981964 -1.5,6.53481964 -1.5,9.6 L-1.5,22.08 C-1.5,22.7593102 -1.22465512,23.3743102 -0.779482682,23.8194827 C-0.334310242,24.2646551 0.280689757,24.54 0.96,24.54 L24,24.54 C24.6793102,24.54 25.2943102,24.2646551 25.7394827,23.8194827 C26.1846551,23.3743102 26.46,22.7593102 26.46,22.08 L26.46,5.76 C26.46,3.75520636 25.6473968,1.94020636 24.3335952,0.626404768 C23.0197936,-0.687396821 21.2047936,-1.5 19.2,-1.5 Z" id="bg" stroke="#FFFFFF" stroke-width="3" fill="#000000" transform="translate(12.480000, 11.520000) scale(-1, 1) translate(-12.480000, -11.520000) "></path>
                <path d="M18.24,7.68 C19.8146743,7.68 21.0941815,8.94376046 21.1196142,10.5123739 L21.12,10.56 C21.12,11.6524593 20.5117336,12.6028504 19.6153999,13.090974 L21.47712,17.28 L19.37604,17.28 L17.6694,13.44 L16.32,13.44 L16.32,17.28 L14.4,17.28 L14.4,7.68 L18.24,7.68 Z M12.48,5.76 L12.48,8.2566 L6.79728,15.36 L12.48,15.36 L12.48,17.28 L4.8,17.28 L4.8,14.7834 L10.4826001,7.68 L4.8,7.68 L4.8,5.76 L12.48,5.76 Z M18,9.6 L16.32,9.6 L16.32,11.52 L18,11.52 C18.5201897,11.52 18.9437451,11.1062595 18.9595432,10.5899015 L18.96,10.56 L18.9595432,10.5300985 C18.944049,10.0236705 18.5363295,9.61595105 18.0299015,9.60045682 L18,9.6 Z" id="Shape" fill="#FFFFFF" fill-rule="nonzero"></path>
            </g>
        </g>
    </g>
</svg>