<?xml version="1.0" encoding="UTF-8"?>
<svg width="56px" height="56px" viewBox="0 0 56 56" version="1.1" xmlns="http://www.w3.org/2000/svg" xmlns:xlink="http://www.w3.org/1999/xlink">
    <!-- Generator: Sketch 63 (92445) - https://sketch.com -->
    <title>assets/icons/CanvasMenu_ConfigToggle</title>
    <desc>Created with Sketch.</desc>
    <g id="Mockups" stroke="none" stroke-width="1" fill="none" fill-rule="evenodd">
        <g id="ConfigToggle" fill="#F2732C" fill-rule="nonzero">
            <path d="M41.5600103,21.506 L41.5600103,12.7 C41.5600103,11.7611159 40.7988944,11 39.8600103,11 C38.9211263,11 38.1600103,11.7611159 38.1600103,12.7 L38.1600103,21.506 C36.1430395,22.2380627 34.8,24.1542863 34.8,26.3 C34.8,28.4457137 36.1430395,30.3619373 38.1600103,31.094 L38.1600103,43.3 C38.1600103,44.2388841 38.9211263,45 39.8600103,45 C40.7988944,45 41.5600103,44.2388841 41.5600103,43.3 L41.5600103,31.094 C43.5769812,30.3619373 44.9200207,28.4457137 44.9200207,26.3 C44.9200207,24.1542863 43.5769812,22.2380627 41.5600103,21.506 Z M29.6600103,31.706 L29.6600103,12.7 C29.6600103,11.7611159 28.8988944,11 27.9600103,11 C27.0211263,11 26.2600103,11.7611159 26.2600103,12.7 L26.2600103,31.706 C24.2430395,32.4380627 22.9,34.3542863 22.9,36.5 C22.9,38.6457137 24.2430395,40.5619373 26.2600103,41.294 L26.2600103,43.3 C26.2600103,44.2388841 27.0211263,45 27.9600103,45 C28.8988944,45 29.6600103,44.2388841 29.6600103,43.3 L29.6600103,41.294 C31.6769812,40.5619373 33.0200207,38.6457137 33.0200207,36.5 C33.0200207,34.3542863 31.6769812,32.4380627 29.6600103,31.706 L29.6600103,31.706 Z M17.7600103,18.106 L17.7600103,12.7 C17.7600103,11.7611159 16.9988944,11 16.0600103,11 C15.1211263,11 14.3600103,11.7611159 14.3600103,12.7 L14.3600103,18.106 C12.3430395,18.8380627 11,20.7542863 11,22.9 C11,25.0457137 12.3430395,26.9619373 14.3600103,27.694 L14.3600103,43.3 C14.3600103,44.2388841 15.1211263,45 16.0600103,45 C16.9988944,45 17.7600103,44.2388841 17.7600103,43.3 L17.7600103,27.694 C19.7769812,26.9619373 21.1200207,25.0457137 21.1200207,22.9 C21.1200207,20.7542863 19.7769812,18.8380627 17.7600103,18.106 L17.7600103,18.106 Z" id="Shape" transform="translate(27.960010, 28.000000) scale(-1, -1) translate(-27.960010, -28.000000) "></path>
        </g>
    </g>
</svg>