<?xml version="1.0" encoding="UTF-8"?>
<svg width="56px" height="56px" viewBox="0 0 56 56" version="1.1" xmlns="http://www.w3.org/2000/svg" xmlns:xlink="http://www.w3.org/1999/xlink">
    <!-- Generator: Sketch 63 (92445) - https://sketch.com -->
    <title>assets/icons/CanvasMenu_FrameToggle</title>
    <desc>Created with Sketch.</desc>
    <g id="Mockups" stroke="none" stroke-width="1" fill="none" fill-rule="evenodd">
        <g id="FrameToggle" fill="#F2732C">
            <path d="M51,9 C52.1045695,9 53,9.8954305 53,11 L53,47 C53,48.1045695 52.1045695,49 51,49 L4,49 C2.8954305,49 2,48.1045695 2,47 L2,11 C2,9.8954305 2.8954305,9 4,9 L51,9 Z M48,41 L47,41 C45.8954305,41 45,41.8954305 45,43 L45,43 L45,44 C45,45.1045695 45.8954305,46 47,46 L47,46 L48,46 C49.1045695,46 50,45.1045695 50,44 L50,44 L50,43 C50,41.8954305 49.1045695,41 48,41 L48,41 Z M40,41 L39,41 C37.8954305,41 37,41.8954305 37,43 L37,43 L37,44 C37,45.1045695 37.8954305,46 39,46 L39,46 L40,46 C41.1045695,46 42,45.1045695 42,44 L42,44 L42,43 C42,41.8954305 41.1045695,41 40,41 L40,41 Z M32,41 L31,41 C29.8954305,41 29,41.8954305 29,43 L29,43 L29,44 C29,45.1045695 29.8954305,46 31,46 L31,46 L32,46 C33.1045695,46 34,45.1045695 34,44 L34,44 L34,43 C34,41.8954305 33.1045695,41 32,41 L32,41 Z M24,41 L23,41 C21.8954305,41 21,41.8954305 21,43 L21,43 L21,44 C21,45.1045695 21.8954305,46 23,46 L23,46 L24,46 C25.1045695,46 26,45.1045695 26,44 L26,44 L26,43 C26,41.8954305 25.1045695,41 24,41 L24,41 Z M16,41 L15,41 C13.8954305,41 13,41.8954305 13,43 L13,43 L13,44 C13,45.1045695 13.8954305,46 15,46 L15,46 L16,46 C17.1045695,46 18,45.1045695 18,44 L18,44 L18,43 C18,41.8954305 17.1045695,41 16,41 L16,41 Z M8,41 L7,41 C5.8954305,41 5,41.8954305 5,43 L5,43 L5,44 C5,45.1045695 5.8954305,46 7,46 L7,46 L8,46 C9.1045695,46 10,45.1045695 10,44 L10,44 L10,43 C10,41.8954305 9.1045695,41 8,41 L8,41 Z M48,20 L32,20 C30.8954305,20 30,20.8954305 30,22 L30,22 L30,36 C30,37.1045695 30.8954305,38 32,38 L32,38 L48,38 C49.1045695,38 50,37.1045695 50,36 L50,36 L50,22 C50,20.8954305 49.1045695,20 48,20 L48,20 Z M23,20 L7,20 C5.8954305,20 5,20.8954305 5,22 L5,22 L5,36 C5,37.1045695 5.8954305,38 7,38 L7,38 L23,38 C24.1045695,38 25,37.1045695 25,36 L25,36 L25,22 C25,20.8954305 24.1045695,20 23,20 L23,20 Z M48,12 L47,12 C45.8954305,12 45,12.8954305 45,14 L45,14 L45,15 C45,16.1045695 45.8954305,17 47,17 L47,17 L48,17 C49.1045695,17 50,16.1045695 50,15 L50,15 L50,14 C50,12.8954305 49.1045695,12 48,12 L48,12 Z M40,12 L39,12 C37.8954305,12 37,12.8954305 37,14 L37,14 L37,15 C37,16.1045695 37.8954305,17 39,17 L39,17 L40,17 C41.1045695,17 42,16.1045695 42,15 L42,15 L42,14 C42,12.8954305 41.1045695,12 40,12 L40,12 Z M32,12 L31,12 C29.8954305,12 29,12.8954305 29,14 L29,14 L29,15 C29,16.1045695 29.8954305,17 31,17 L31,17 L32,17 C33.1045695,17 34,16.1045695 34,15 L34,15 L34,14 C34,12.8954305 33.1045695,12 32,12 L32,12 Z M24,12 L23,12 C21.8954305,12 21,12.8954305 21,14 L21,14 L21,15 C21,16.1045695 21.8954305,17 23,17 L23,17 L24,17 C25.1045695,17 26,16.1045695 26,15 L26,15 L26,14 C26,12.8954305 25.1045695,12 24,12 L24,12 Z M16,12 L15,12 C13.8954305,12 13,12.8954305 13,14 L13,14 L13,15 C13,16.1045695 13.8954305,17 15,17 L15,17 L16,17 C17.1045695,17 18,16.1045695 18,15 L18,15 L18,14 C18,12.8954305 17.1045695,12 16,12 L16,12 Z M8,12 L7,12 C5.8954305,12 5,12.8954305 5,14 L5,14 L5,15 C5,16.1045695 5.8954305,17 7,17 L7,17 L8,17 C9.1045695,17 10,16.1045695 10,15 L10,15 L10,14 C10,12.8954305 9.1045695,12 8,12 L8,12 Z" id="Combined-Shape-Copy"></path>
        </g>
    </g>
</svg>