<?xml version="1.0" encoding="UTF-8"?>
<svg width="56px" height="56px" viewBox="0 0 56 56" version="1.1" xmlns="http://www.w3.org/2000/svg" xmlns:xlink="http://www.w3.org/1999/xlink">
    <!-- Generator: Sketch 63 (92445) - https://sketch.com -->
    <title>assets/icons/CanvasMenu_MusicToggle</title>
    <desc>Created with Sketch.</desc>
    <g id="Mockups" stroke="none" stroke-width="1" fill="none" fill-rule="evenodd">
        <g id="MusicToggle" fill="#F2732C" fill-rule="nonzero">
            <path d="M43.405,11.4099273 C43.0300319,11.0881427 42.5336139,10.9454225 42.045,11.0189273 L19.945,14.4189273 C19.1132584,14.5451155 18.4988947,15.2606686 18.5,16.1019273 L18.5,33.6969273 C17.7057015,33.3089576 16.8339782,33.1055555 15.95,33.1019273 C12.6639057,33.1019273 10,35.7658331 10,39.0519273 C10,42.3380216 12.6639057,45.0019273 15.95,45.0019273 C19.2360943,45.0019273 21.5,42.2880216 21.5,39.0019273 L21.5,26.0139273 L41,23.0019273 L41,30.5019273 C40.2057015,30.1139576 38.9339782,29.7055555 38.05,29.7019273 C34.7639057,29.7019273 32.1,32.3658331 32.1,35.6519273 C32.1,38.9380216 34.7639057,41.6019273 38.05,41.6019273 C41.3360943,41.6019273 44,38.9380216 44,35.6519273 L44,12.7019273 C44,12.2049973 43.7826342,11.7329319 43.405,11.4099273 Z" id="Shape"></path>
        </g>
    </g>
</svg>