<?xml version="1.0" encoding="UTF-8"?>
<svg width="24px" height="24px" viewBox="0 0 24 24" version="1.1" xmlns="http://www.w3.org/2000/svg" xmlns:xlink="http://www.w3.org/1999/xlink">
    <!-- Generator: Sketch 63 (92445) - https://sketch.com -->
    <title>assets/icons/Coin</title>
    <desc>Created with Sketch.</desc>
    <g id="Mockups" stroke="none" stroke-width="1" fill="none" fill-rule="evenodd">
        <g id="StarCounter" transform="translate(-9.000000, -4.000000)" fill="#FB9349" fill-rule="nonzero">
            <g id="Group" transform="translate(9.000000, 4.000000)">
                <path d="M14.5,1 L10.3131571,1.00259032 C5.62751054,1.13260929 2,6.0649629 2,12 C2,17.9322149 5.6241447,22.863105 10.3071478,22.9972402 L14.5,23 C19.2671356,23 23,18.0228475 23,12 C23,5.9771525 19.2671356,1 14.5,1 Z M10.3686325,3.00182079 L14.5003197,2.99999995 C18.0171356,2.99999995 21,6.9771525 21,11.9999999 C21,17.0228475 18.0171356,20.9999999 14.5,20.9999999 L10.3402582,20.9976602 C6.9021676,20.8988911 4,16.9502989 4,11.9999999 C4,7.04744242 6.9046704,3.09794003 10.3686325,3.00182079 Z" id="Oval-Copy"></path>
                <path d="M10.5,1 C5.73286438,1 2,5.9771525 2,12 C2,18.0228475 5.73286438,23 10.5,23 C15.2671356,23 19,18.0228475 19,12 C19,5.9771525 15.2671356,1 10.5,1 Z M10.5,3 C14.0171356,3 17,6.9771525 17,12 C17,17.0228475 14.0171356,21 10.5,21 C6.98286438,21 4,17.0228475 4,12 C4,6.9771525 6.98286438,3 10.5,3 Z" id="Oval"></path>
                <path d="M11,6 L10,6 C8.8954305,6 8,6.8954305 8,8 L8,16 C8,17.1045695 8.8954305,18 10,18 L11,18 C12.1045695,18 13,17.1045695 13,16 L13,8 C13,6.8954305 12.1045695,6 11,6 Z M10,8 L11,8 L11,16 L10,16 L10,8 Z" id="Rectangle"></path>
            </g>
        </g>
    </g>
</svg>