<?xml version="1.0" encoding="UTF-8"?>
<svg width="42px" height="42px" viewBox="0 0 42 42" version="1.1" xmlns="http://www.w3.org/2000/svg" xmlns:xlink="http://www.w3.org/1999/xlink">
    <!-- Generator: Sketch 63 (92445) - https://sketch.com -->
    <title>assets/icons/Edit</title>
    <desc>Created with Sketch.</desc>
    <g id="Mockups" stroke="none" stroke-width="1" fill="none" fill-rule="evenodd">
        <g id="Edit" stroke-width="3">
            <path d="M23.158186,1.5 C21.4810516,1.5 19.8038573,2.13911726 18.524224,3.41758572 L3.41873472,18.5084149 C2.19027619,19.7357553 1.5,21.4003982 1.5,23.1361959 L1.5,35.965951 C1.5,37.2178379 2.00799398,38.351147 2.82911932,39.171525 C3.65073928,39.992397 4.78582899,40.5 6.03954649,40.5 L17.9064388,40.5 C19.6057364,40.5 21.2387504,39.840621 22.4607947,38.6606042 L38.5639861,23.4697718 C39.8529416,22.1951565 40.5,20.509771 40.5,18.8246632 C40.5,17.1496943 39.8603328,15.4747855 38.5812333,14.1968503 L27.7921479,3.41758572 C26.5125147,2.13911726 24.8353204,1.5 23.158186,1.5 Z" id="outline" stroke="#FFFFFF" fill="#FFFFFF"></path>
            <path d="M5,36 L5,23.2426407 C5,22.4469912 5.31607052,21.6839295 5.87867966,21.1213203 L20.8786797,6.12132034 C22.0502525,4.94974747 23.9497475,4.94974747 25.1213203,6.12132034 L35.820572,16.820572 C36.9921449,17.9921449 36.9921449,19.8916399 35.820572,21.0632127 C35.8014654,21.0823194 35.7821015,21.101167 35.7624856,21.1197504 L19.8678165,36.1778581 C19.3105773,36.7057689 18.5721797,37 17.8045826,37 L6,37 C5.44771525,37 5,36.5522847 5,36 Z" id="fill" stroke="#000000"></path>
            <line x1="7" y1="20" x2="22" y2="35" id="line" stroke="#000000"></line>
            <line x1="5" y1="27" x2="15" y2="37" id="line" stroke="#000000"></line>
        </g>
    </g>
</svg>