<?xml version="1.0" encoding="UTF-8"?>
<svg width="28px" height="28px" viewBox="0 0 28 28" version="1.1" xmlns="http://www.w3.org/2000/svg" xmlns:xlink="http://www.w3.org/1999/xlink">
    <!-- Generator: Sketch 63 (92445) - https://sketch.com -->
    <title>assets/icons/FrameErase</title>
    <desc>Created with Sketch.</desc>
    <g id="Mockups" stroke="none" stroke-width="1" fill="none" fill-rule="evenodd">
        <g id="Icon/Erase" fill="#FF751E">
            <path d="M16,21 L16,27 L12,27 L12,21 L16,21 Z M20.363961,17.5355339 L24.6066017,21.7781746 L21.7781746,24.6066017 L17.5355339,20.363961 L20.363961,17.5355339 Z M7.63603897,17.5355339 L10.4644661,20.363961 L6.22182541,24.6066017 L3.39339828,21.7781746 L7.63603897,17.5355339 Z M27,12 L27,16 L21,16 L21,12 L27,12 Z M7,12 L7,16 L1,16 L1,12 L7,12 Z M21.7781746,3.39339828 L24.6066017,6.22182541 L20.363961,10.4644661 L17.5355339,7.63603897 L21.7781746,3.39339828 Z M6.22182541,3.39339828 L10.4644661,7.63603897 L7.63603897,10.4644661 L3.39339828,6.22182541 L6.22182541,3.39339828 Z M16,1 L16,7 L12,7 L12,1 L16,1 Z" id="Combined-Shape"></path>
        </g>
    </g>
</svg>