<?xml version="1.0" encoding="UTF-8"?>
<svg width="28px" height="28px" viewBox="0 0 28 28" version="1.1" xmlns="http://www.w3.org/2000/svg" xmlns:xlink="http://www.w3.org/1999/xlink">
    <!-- Generator: Sketch 63 (92445) - https://sketch.com -->
    <title>assets/icons/FrameNew</title>
    <desc>Created with Sketch.</desc>
    <g id="Mockups" stroke="none" stroke-width="1" fill="none" fill-rule="evenodd">
        <g id="Icon/New">
            <path d="M24,2.5 L4,2.5 C3.58578644,2.5 3.21078644,2.66789322 2.93933983,2.93933983 C2.66789322,3.21078644 2.5,3.58578644 2.5,4 L2.5,24 C2.5,24.4142136 2.66789322,24.7892136 2.93933983,25.0606602 C3.21078644,25.3321068 3.58578644,25.5 4,25.5 L18.3786797,25.5 L25.5,18.3786797 L25.5,4 C25.5,3.58578644 25.3321068,3.21078644 25.0606602,2.93933983 C24.7892136,2.66789322 24.4142136,2.5 24,2.5 Z" id="Rectangle" stroke="#FF751E" stroke-width="3"></path>
            <path d="M24,14 L24,17 L17,17 L17,24 L14,24 L14,15.5 C14,14.7203039 14.5948881,14.0795513 15.35554,14.0068666 L15.5,14 L24,14 Z" id="Path" fill="#FF751E" fill-rule="nonzero"></path>
        </g>
    </g>
</svg>