<?xml version="1.0" encoding="UTF-8"?>
<svg width="70px" height="70px" viewBox="0 0 70 70" version="1.1" xmlns="http://www.w3.org/2000/svg" xmlns:xlink="http://www.w3.org/1999/xlink">
    <!-- Generator: Sketch 63 (92445) - https://sketch.com -->
    <title>assets/icons/PaintTool</title>
    <desc>Created with Sketch.</desc>
    <defs>
        <path d="M55.7630738,10.4349024 C53.7728657,8.66618501 51.254156,7.87160321 48.790819,8.01675279 C46.327482,8.16190237 43.9195177,9.24678334 42.1508003,11.2369915 L35.7727617,18.4119806 L28.8589812,14.7771763 C27.3228277,14.0396921 25.6365968,13.8359172 24.0353406,14.1278614 C22.4703901,14.4131863 20.9853965,15.1721221 19.8039527,16.3744867 L6.67342509,29.7446014 C4.9129922,31.6522394 4.01461267,34.0960559 3.99999987,36.550622 C3.9859103,38.9763936 4.83434283,41.408976 6.55131641,43.3400341 C9.35648908,46.4949738 11.9833068,49.7436569 14.4317637,53.0863338 C16.2541698,55.5743151 17.9851152,58.0576839 19.624527,60.5364833 C20.3324055,61.6067993 21.2359909,62.5283981 22.2852394,63.2523243 C24.5657778,64.8257756 27.2572537,65.3068093 29.7642764,64.8171006 C32.2613739,64.3293306 34.579675,62.876784 36.1201425,60.5642782 L36.8274891,59.5103594 L37.528514,58.4814365 L38.2356444,57.4593079 C39.1628248,56.129464 40.0967283,54.8314548 41.0304584,53.5753114 L41.5409292,52.8937309 L48.8908619,45.4065303 C50.0295035,44.1595153 50.7238403,42.6108498 50.9328465,40.9937275 C51.1373522,39.411427 50.8771993,37.7649423 50.120397,36.2758818 L47.8744667,31.8575488 L56.1085754,24.5267036 C58.0706018,22.6018603 59.0379776,20.0532358 58.9616825,17.4613865 C58.8903411,15.0378219 57.903503,12.5565992 55.7630738,10.4349024 Z" id="path-1"></path>
        <filter x="-14.6%" y="-14.0%" width="129.1%" height="136.8%" filterUnits="objectBoundingBox" id="filter-2">
            <feMorphology radius="0.5" operator="dilate" in="SourceAlpha" result="shadowSpreadOuter1"></feMorphology>
            <feOffset dx="0" dy="0" in="shadowSpreadOuter1" result="shadowOffsetOuter1"></feOffset>
            <feGaussianBlur stdDeviation="1.5" in="shadowOffsetOuter1" result="shadowBlurOuter1"></feGaussianBlur>
            <feComposite in="shadowBlurOuter1" in2="SourceAlpha" operator="out" result="shadowBlurOuter1"></feComposite>
            <feColorMatrix values="0 0 0 0 0.313532463   0 0 0 0 0.321764974   0 0 0 0 0.366055254  0 0 0 0.348967439 0" type="matrix" in="shadowBlurOuter1" result="shadowMatrixOuter1"></feColorMatrix>
            <feOffset dx="0" dy="6" in="SourceAlpha" result="shadowOffsetOuter2"></feOffset>
            <feGaussianBlur stdDeviation="1" in="shadowOffsetOuter2" result="shadowBlurOuter2"></feGaussianBlur>
            <feComposite in="shadowBlurOuter2" in2="SourceAlpha" operator="out" result="shadowBlurOuter2"></feComposite>
            <feColorMatrix values="0 0 0 0 0.189199521   0 0 0 0 0.197019944   0 0 0 0 0.243942482  0 0 0 0.263576267 0" type="matrix" in="shadowBlurOuter2" result="shadowMatrixOuter2"></feColorMatrix>
            <feMerge>
                <feMergeNode in="shadowMatrixOuter1"></feMergeNode>
                <feMergeNode in="shadowMatrixOuter2"></feMergeNode>
            </feMerge>
        </filter>
    </defs>
    <g id="Mockups" stroke="none" stroke-width="1" fill="none" fill-rule="evenodd">
        <g id="ToolIcon/Paint">
            <g id="Group">
                <g id="Path-Copy">
                    <use fill="black" fill-opacity="1" filter="url(#filter-2)" xlink:href="#path-1"></use>
                    <path stroke="#FFFFFF" stroke-width="3" d="M48.8790519,9.51415553 C46.7989336,9.63672434 44.7655739,10.5528315 43.272014,12.2334251 L36.1138809,20.2859834 L28.1864179,16.1182525 C26.9489817,15.5302734 25.5927352,15.3686413 24.3043884,15.6035353 C23.0354281,15.8348946 21.8317507,16.4509656 20.8738802,17.4257978 L7.76061423,30.778336 C6.27100653,32.4009325 5.5123769,34.4760727 5.49997329,36.5595518 C5.4879731,38.6256022 6.20957616,40.698235 7.67229276,42.3433336 C10.5092077,45.5339733 13.1656995,48.8194568 15.6418612,52.1999569 C17.4786749,54.7076077 19.2232782,57.2106277 20.8756506,59.7090235 C21.4773403,60.6187815 22.2452054,61.402325 23.1370833,62.0176737 C25.0701342,63.351377 27.3514501,63.7600606 29.4767091,63.3449236 C31.5970054,62.930756 33.5640733,61.6957506 34.8717674,59.7326776 L35.5820018,58.6744399 L36.2888851,57.6368536 L37.0020755,56.6058985 C37.9411925,55.2589166 38.883997,53.948559 39.8266158,52.6804579 L40.400347,51.9143937 L47.8004625,44.3760731 C48.7174309,43.3638673 49.2760998,42.1099751 49.4452201,40.8014581 C49.611926,39.5116214 49.4001391,38.1693871 48.7831934,36.9555042 L46.0132333,31.5062675 L55.0829094,23.4315147 C56.7186851,21.8133215 57.5262759,19.6777852 57.462332,17.5055222 C57.4015847,15.441854 56.5472602,13.3398263 54.7408106,11.5337872 C53.0644988,10.0557785 50.9486324,9.39220764 48.8790519,9.51415553 Z" stroke-linejoin="square" fill="#FFFFFF" fill-rule="evenodd"></path>
                </g>
                <path d="M53.7702068,12.6773298 C53.8676155,12.7638979 53.9624554,12.853314 54.0546034,12.945462 C56.6484679,15.5393265 56.6484679,19.7448118 54.0546034,22.3386764 C53.9624509,22.4308289 53.8676061,22.5202493 53.7701923,22.6068213 L44.152,31.1549861 L47.4459898,37.6351266 C48.4019168,39.5159785 48.098568,41.7954015 46.7076102,43.3481146 L46.5485923,43.5175906 L39.259777,50.9350442 L38.6227731,51.7856045 C37.671299,53.0656186 36.7196242,54.3882768 35.7685066,55.752489 L35.0552847,56.7834225 L34.3423427,57.8298366 L33.6233922,58.901077 C31.4735509,62.1283575 27.1600539,62.9709335 23.9889271,60.7830231 C23.2544199,60.2762518 22.6222751,59.6307637 22.1267742,58.8815637 C20.4614413,56.3635714 18.70318,53.8409003 16.8519587,51.31358 C14.3480921,47.8952568 11.6619262,44.5729728 8.7932691,41.346633 C6.37198324,38.6234439 6.4143078,34.4809281 8.84935332,31.8104924 L9.03179653,31.6177637 L21.9438078,18.477109 C23.4150937,16.9797697 25.6413968,16.5828281 27.5170158,17.4609907 L27.7239186,17.5638205 L36.455,22.1599861 L44.3932277,13.2298586 C46.8300324,10.4879007 51.0282489,10.2405252 53.7702068,12.6773298 Z M17.848776,28.349823 L11.8347465,34.4703479 C10.7144787,35.6104533 10.669517,37.4443169 11.7325203,38.6398631 C14.6849298,41.9603981 17.4508386,45.381309 20.0300552,48.9025015 C21.9189576,51.4812646 23.7140241,54.0567423 25.4152231,56.6289642 C25.6275806,56.9500498 25.8984997,57.2266876 26.2132885,57.4438753 C27.5220074,58.3468223 29.2847193,58.0454139 30.2396752,56.7816303 L30.346206,56.631552 L31.0729377,55.5487176 C32.5352671,53.386075 33.9983701,51.320042 35.4623361,49.3506036 L36.2728702,48.270105 L36.7743678,47.5866887 L17.848776,28.349823 Z M49.5405237,14.9434882 C48.1509492,14.9434882 47.0244764,16.0699574 47.0244764,17.4595276 C47.0244764,18.8490979 48.1509492,19.9755671 49.5405237,19.9755671 C50.9300982,19.9755671 52.056571,18.8490979 52.056571,17.4595276 C52.056571,16.0699574 50.9300982,14.9434882 49.5405237,14.9434882 Z" id="Shape" fill="#000000" fill-rule="nonzero"></path>
            </g>
        </g>
    </g>
</svg>