<?xml version="1.0" encoding="UTF-8"?>
<svg width="32px" height="33px" viewBox="0 0 32 33" version="1.1" xmlns="http://www.w3.org/2000/svg" xmlns:xlink="http://www.w3.org/1999/xlink">
    <!-- Generator: Sketch 63 (92445) - https://sketch.com -->
    <title>assets/icons/SkipFirst</title>
    <desc>Created with Sketch.</desc>
    <g id="Mockups" stroke="none" stroke-width="1" fill="none" fill-rule="evenodd">
        <g id="PlayControls" transform="translate(-24.000000, -22.000000)" fill="#FF751E">
            <g id="Group-4">
                <g id="Group-11" transform="translate(0.000000, 14.000000)">
                    <g id="Group" transform="translate(24.000000, 8.500000)">
                        <path d="M26.5,4.5 C27.8807119,4.5 29,5.61928813 29,7 L29,25.1481481 C29,26.52886 27.8807119,27.6481481 26.5,27.6481481 C25.1192881,27.6481481 24,26.52886 24,25.1481481 L24.0015521,17.3040002 C23.993643,17.3141374 23.9856229,17.3242173 23.9774919,17.3342381 L16.4305418,26.6352848 C15.9106335,27.2760325 15.1294916,27.6481481 14.3043478,27.6481481 C13.5839764,27.6481481 13,27.0641717 13,26.3438003 L13.0015521,17.3040002 C12.993643,17.3141374 12.9856229,17.3242173 12.9774919,17.3342381 L5.43054179,26.6352848 C4.91063354,27.2760325 4.12949156,27.6481481 3.30434783,27.6481481 C2.58397641,27.6481481 2,27.0641717 2,26.3438003 L2,5.80434783 C2,5.08397641 2.58397641,4.5 3.30434783,4.5 C4.12949156,4.5 4.91063354,4.87211567 5.43054179,5.51286336 L12.9774919,14.81391 L13,14.844 L13,5.80434783 C13,5.08397641 13.5839764,4.5 14.3043478,4.5 C15.1294916,4.5 15.9106335,4.87211567 16.4305418,5.51286336 L23.9774919,14.81391 L24,14.844 L24,7 C24,5.61928813 25.1192881,4.5 26.5,4.5 Z" id="Combined-Shape-Copy-3" transform="translate(15.500000, 16.074074) scale(-1, 1) translate(-15.500000, -16.074074) "></path>
                    </g>
                </g>
            </g>
        </g>
    </g>
</svg>